<?xml version="1.0" ?><svg id="solid" viewBox="0 0 512 512" xmlns="http://www.w3.org/2000/svg"><title/><path d="M436.2,181.033a31.842,31.842,0,0,0-27.025-6.171L287.4,202.538a39.794,39.794,0,0,0-31.134,39V382.315a2.99,2.99,0,0,1-4.3,2.7,51.972,51.972,0,0,0-28.661-4.785C196.777,383,176,402.39,176,424.376a33.257,33.257,0,0,0,11.315,24.906c8.035,7.24,19.3,11.183,31.56,11.183a58.9,58.9,0,0,0,6.087-.319c26.524-2.769,47.3-22.161,47.3-44.146V308.772a8,8,0,0,1,6.227-7.8l144-32.728a8,8,0,0,1,9.773,7.8v66.177a2.99,2.99,0,0,1-4.312,2.7A52.075,52.075,0,0,0,399.358,340c-26.543,2.617-47.334,21.909-47.334,43.919a33.416,33.416,0,0,0,11.307,24.95c8.093,7.335,19.47,11.339,31.84,11.339,1.9,0,3.821-.095,5.758-.286C427.472,417.3,448.263,398.01,448.263,376V206.728A32.757,32.757,0,0,0,436.2,181.033ZM277.454,59.021l2.533,50.729A10,10,0,0,1,272.216,120l-96.735,22.274a23.876,23.876,0,0,0-18.681,23.4V284.728c0,22-20.051,41.263-45.649,43.861a54.322,54.322,0,0,1-5.484.279c-11.687,0-22.52-3.848-30.325-10.9a33.963,33.963,0,0,1-11.455-25.433c0-22,20.051-41.265,45.649-43.862a49.071,49.071,0,0,1,26.876,4.578,3.006,3.006,0,0,0,4.388-2.657V110.271a40,40,0,0,1,31.135-39.006l93.315-21.5A10,10,0,0,1,277.454,59.021Z" style="fill:#3b3b3b"/></svg>